<mxfile host="app.diagrams.net" modified="2024-05-25T03:36:33.014Z" agent="Mozilla/5.0 (Windows NT 10.0; Win64; x64) AppleWebKit/537.36 (KHTML, like Gecko) Chrome/125.0.0.0 Safari/537.36 Edg/125.0.0.0" etag="JgP705hZihbL6933PD10" version="24.2.8" type="device">
  <diagram name="PÃ¡gina-1" id="0eG6I0SzvupC0V26us7g">
    <mxGraphModel dx="931" dy="373" grid="1" gridSize="10" guides="1" tooltips="1" connect="1" arrows="1" fold="1" page="1" pageScale="1" pageWidth="827" pageHeight="1169" math="0" shadow="0">
      <root>
        <mxCell id="0" />
        <mxCell id="1" parent="0" />
        <mxCell id="BxaGuDlrFHRcd8ozgAap-1" value="Index.html" style="rounded=0;whiteSpace=wrap;html=1;" vertex="1" parent="1">
          <mxGeometry x="120" y="230" width="120" height="60" as="geometry" />
        </mxCell>
        <mxCell id="BxaGuDlrFHRcd8ozgAap-2" value="Proyecto.hml" style="rounded=0;whiteSpace=wrap;html=1;" vertex="1" parent="1">
          <mxGeometry x="370" y="230" width="120" height="60" as="geometry" />
        </mxCell>
        <mxCell id="BxaGuDlrFHRcd8ozgAap-3" value="scriptIndex.js" style="rounded=0;whiteSpace=wrap;html=1;" vertex="1" parent="1">
          <mxGeometry x="370" y="130" width="120" height="60" as="geometry" />
        </mxCell>
        <mxCell id="BxaGuDlrFHRcd8ozgAap-4" value="" style="shape=actor;whiteSpace=wrap;html=1;" vertex="1" parent="1">
          <mxGeometry x="40" y="230" width="40" height="60" as="geometry" />
        </mxCell>
        <mxCell id="BxaGuDlrFHRcd8ozgAap-6" value="Usuario" style="text;html=1;align=center;verticalAlign=middle;whiteSpace=wrap;rounded=0;" vertex="1" parent="1">
          <mxGeometry x="30" y="300" width="60" height="30" as="geometry" />
        </mxCell>
        <mxCell id="BxaGuDlrFHRcd8ozgAap-7" value="OpenWeatherAPI - REST" style="rounded=1;whiteSpace=wrap;html=1;" vertex="1" parent="1">
          <mxGeometry x="570" y="40" width="250" height="30" as="geometry" />
        </mxCell>
        <mxCell id="BxaGuDlrFHRcd8ozgAap-8" value="GoogleMapsAPI - REST" style="rounded=1;whiteSpace=wrap;html=1;" vertex="1" parent="1">
          <mxGeometry x="570" y="80" width="250" height="30" as="geometry" />
        </mxCell>
        <mxCell id="BxaGuDlrFHRcd8ozgAap-9" value="ExchangeRateAPI - REST" style="rounded=1;whiteSpace=wrap;html=1;" vertex="1" parent="1">
          <mxGeometry x="570" y="120" width="250" height="30" as="geometry" />
        </mxCell>
        <mxCell id="BxaGuDlrFHRcd8ozgAap-10" value="WikipediaAPI - REST" style="rounded=1;whiteSpace=wrap;html=1;" vertex="1" parent="1">
          <mxGeometry x="570" y="160" width="250" height="30" as="geometry" />
        </mxCell>
        <mxCell id="BxaGuDlrFHRcd8ozgAap-11" value="RestCountriesAPI - REST" style="rounded=1;whiteSpace=wrap;html=1;" vertex="1" parent="1">
          <mxGeometry x="570" y="200" width="250" height="30" as="geometry" />
        </mxCell>
        <mxCell id="BxaGuDlrFHRcd8ozgAap-12" value="&lt;b style=&quot;text-indent: -18pt; background-color: initial;&quot;&gt;&lt;span style=&quot;font-family:&amp;quot;Aptos Display&amp;quot;,sans-serif&quot;&gt;National Digital Forecast Database&lt;/span&gt;&lt;/b&gt;&amp;nbsp;- SOAP" style="rounded=1;whiteSpace=wrap;html=1;" vertex="1" parent="1">
          <mxGeometry x="570" y="240" width="250" height="30" as="geometry" />
        </mxCell>
        <mxCell id="BxaGuDlrFHRcd8ozgAap-13" value="" style="endArrow=classic;html=1;rounded=0;exitX=1;exitY=0.5;exitDx=0;exitDy=0;entryX=-0.005;entryY=0.344;entryDx=0;entryDy=0;entryPerimeter=0;" edge="1" parent="1" source="BxaGuDlrFHRcd8ozgAap-3" target="BxaGuDlrFHRcd8ozgAap-7">
          <mxGeometry width="50" height="50" relative="1" as="geometry">
            <mxPoint x="500" y="100" as="sourcePoint" />
            <mxPoint x="550" y="50" as="targetPoint" />
            <Array as="points">
              <mxPoint x="530" y="160" />
              <mxPoint x="530" y="50" />
            </Array>
          </mxGeometry>
        </mxCell>
        <mxCell id="BxaGuDlrFHRcd8ozgAap-14" value="" style="endArrow=none;html=1;rounded=0;" edge="1" parent="1">
          <mxGeometry width="50" height="50" relative="1" as="geometry">
            <mxPoint x="530" y="260" as="sourcePoint" />
            <mxPoint x="530" y="160" as="targetPoint" />
          </mxGeometry>
        </mxCell>
        <mxCell id="BxaGuDlrFHRcd8ozgAap-15" value="" style="endArrow=classic;html=1;rounded=0;entryX=0;entryY=0.5;entryDx=0;entryDy=0;" edge="1" parent="1" target="BxaGuDlrFHRcd8ozgAap-12">
          <mxGeometry width="50" height="50" relative="1" as="geometry">
            <mxPoint x="530" y="255" as="sourcePoint" />
            <mxPoint x="590" y="240" as="targetPoint" />
          </mxGeometry>
        </mxCell>
        <mxCell id="BxaGuDlrFHRcd8ozgAap-16" value="" style="endArrow=classic;html=1;rounded=0;entryX=0;entryY=0.5;entryDx=0;entryDy=0;" edge="1" parent="1">
          <mxGeometry width="50" height="50" relative="1" as="geometry">
            <mxPoint x="530" y="214.71" as="sourcePoint" />
            <mxPoint x="570" y="214.71" as="targetPoint" />
          </mxGeometry>
        </mxCell>
        <mxCell id="BxaGuDlrFHRcd8ozgAap-17" value="" style="endArrow=classic;html=1;rounded=0;entryX=0;entryY=0.5;entryDx=0;entryDy=0;" edge="1" parent="1">
          <mxGeometry width="50" height="50" relative="1" as="geometry">
            <mxPoint x="530" y="174.70999999999998" as="sourcePoint" />
            <mxPoint x="570" y="174.70999999999998" as="targetPoint" />
          </mxGeometry>
        </mxCell>
        <mxCell id="BxaGuDlrFHRcd8ozgAap-18" value="" style="endArrow=classic;html=1;rounded=0;entryX=0;entryY=0.5;entryDx=0;entryDy=0;" edge="1" parent="1">
          <mxGeometry width="50" height="50" relative="1" as="geometry">
            <mxPoint x="530" y="134.71" as="sourcePoint" />
            <mxPoint x="570" y="134.71" as="targetPoint" />
          </mxGeometry>
        </mxCell>
        <mxCell id="BxaGuDlrFHRcd8ozgAap-19" value="" style="endArrow=classic;html=1;rounded=0;entryX=0;entryY=0.5;entryDx=0;entryDy=0;" edge="1" parent="1">
          <mxGeometry width="50" height="50" relative="1" as="geometry">
            <mxPoint x="530" y="94.76" as="sourcePoint" />
            <mxPoint x="570" y="94.76" as="targetPoint" />
          </mxGeometry>
        </mxCell>
        <mxCell id="BxaGuDlrFHRcd8ozgAap-20" value="" style="endArrow=classic;html=1;rounded=0;entryX=0;entryY=0.5;entryDx=0;entryDy=0;" edge="1" parent="1" target="BxaGuDlrFHRcd8ozgAap-2">
          <mxGeometry width="50" height="50" relative="1" as="geometry">
            <mxPoint x="320" y="260" as="sourcePoint" />
            <mxPoint x="330" y="210" as="targetPoint" />
          </mxGeometry>
        </mxCell>
        <mxCell id="BxaGuDlrFHRcd8ozgAap-21" value="" style="endArrow=classic;html=1;rounded=0;entryX=0.5;entryY=1;entryDx=0;entryDy=0;" edge="1" parent="1">
          <mxGeometry width="50" height="50" relative="1" as="geometry">
            <mxPoint x="422.76" y="230" as="sourcePoint" />
            <mxPoint x="422.76" y="190.00000000000006" as="targetPoint" />
          </mxGeometry>
        </mxCell>
        <mxCell id="BxaGuDlrFHRcd8ozgAap-22" value="" style="endArrow=classic;html=1;rounded=0;entryX=0;entryY=0.5;entryDx=0;entryDy=0;" edge="1" parent="1" target="BxaGuDlrFHRcd8ozgAap-1">
          <mxGeometry width="50" height="50" relative="1" as="geometry">
            <mxPoint x="80" y="260" as="sourcePoint" />
            <mxPoint x="130" y="210" as="targetPoint" />
          </mxGeometry>
        </mxCell>
        <mxCell id="BxaGuDlrFHRcd8ozgAap-24" value="" style="sketch=0;pointerEvents=1;shadow=0;dashed=0;html=1;strokeColor=none;fillColor=#505050;labelPosition=center;verticalLabelPosition=bottom;verticalAlign=top;outlineConnect=0;align=center;shape=mxgraph.office.security.lock_protected;" vertex="1" parent="1">
          <mxGeometry x="290" y="230" width="38" height="52" as="geometry" />
        </mxCell>
        <mxCell id="BxaGuDlrFHRcd8ozgAap-25" value="" style="endArrow=classic;html=1;rounded=0;" edge="1" parent="1">
          <mxGeometry width="50" height="50" relative="1" as="geometry">
            <mxPoint x="260" y="259.71" as="sourcePoint" />
            <mxPoint x="290" y="259.71" as="targetPoint" />
            <Array as="points">
              <mxPoint x="240" y="259.71" />
            </Array>
          </mxGeometry>
        </mxCell>
        <mxCell id="BxaGuDlrFHRcd8ozgAap-26" value="Cifrado AES" style="text;html=1;align=center;verticalAlign=middle;whiteSpace=wrap;rounded=0;" vertex="1" parent="1">
          <mxGeometry x="279" y="290" width="60" height="30" as="geometry" />
        </mxCell>
        <mxCell id="BxaGuDlrFHRcd8ozgAap-27" value="" style="endArrow=classic;html=1;rounded=0;exitX=0;exitY=0.75;exitDx=0;exitDy=0;entryX=1;entryY=0.75;entryDx=0;entryDy=0;" edge="1" parent="1" source="BxaGuDlrFHRcd8ozgAap-1" target="BxaGuDlrFHRcd8ozgAap-4">
          <mxGeometry width="50" height="50" relative="1" as="geometry">
            <mxPoint x="110" y="280" as="sourcePoint" />
            <mxPoint x="80" y="280" as="targetPoint" />
          </mxGeometry>
        </mxCell>
        <mxCell id="BxaGuDlrFHRcd8ozgAap-28" value="" style="endArrow=classic;html=1;rounded=0;entryX=1;entryY=0.75;entryDx=0;entryDy=0;" edge="1" parent="1">
          <mxGeometry width="50" height="50" relative="1" as="geometry">
            <mxPoint x="280" y="270" as="sourcePoint" />
            <mxPoint x="240" y="270" as="targetPoint" />
          </mxGeometry>
        </mxCell>
        <mxCell id="BxaGuDlrFHRcd8ozgAap-29" value="" style="endArrow=classic;html=1;rounded=0;exitX=0;exitY=0.75;exitDx=0;exitDy=0;entryX=1;entryY=0.75;entryDx=0;entryDy=0;" edge="1" parent="1">
          <mxGeometry width="50" height="50" relative="1" as="geometry">
            <mxPoint x="370" y="270" as="sourcePoint" />
            <mxPoint x="330" y="270" as="targetPoint" />
          </mxGeometry>
        </mxCell>
        <mxCell id="BxaGuDlrFHRcd8ozgAap-30" value="" style="endArrow=classic;html=1;rounded=0;entryX=0.615;entryY=-0.024;entryDx=0;entryDy=0;entryPerimeter=0;exitX=0.615;exitY=1.01;exitDx=0;exitDy=0;exitPerimeter=0;" edge="1" parent="1">
          <mxGeometry width="50" height="50" relative="1" as="geometry">
            <mxPoint x="436.55999999999995" y="190.60000000000002" as="sourcePoint" />
            <mxPoint x="436.55999999999995" y="228.56000000000006" as="targetPoint" />
          </mxGeometry>
        </mxCell>
        <mxCell id="BxaGuDlrFHRcd8ozgAap-31" value="" style="endArrow=classic;html=1;rounded=0;entryX=0.994;entryY=0.332;entryDx=0;entryDy=0;entryPerimeter=0;" edge="1" parent="1" target="BxaGuDlrFHRcd8ozgAap-3">
          <mxGeometry width="50" height="50" relative="1" as="geometry">
            <mxPoint x="530" y="150" as="sourcePoint" />
            <mxPoint x="480" y="70" as="targetPoint" />
          </mxGeometry>
        </mxCell>
        <mxCell id="BxaGuDlrFHRcd8ozgAap-32" value="" style="endArrow=classic;html=1;rounded=0;" edge="1" parent="1">
          <mxGeometry width="50" height="50" relative="1" as="geometry">
            <mxPoint x="570" y="60" as="sourcePoint" />
            <mxPoint x="530" y="60" as="targetPoint" />
          </mxGeometry>
        </mxCell>
        <mxCell id="BxaGuDlrFHRcd8ozgAap-33" value="" style="endArrow=classic;html=1;rounded=0;" edge="1" parent="1">
          <mxGeometry width="50" height="50" relative="1" as="geometry">
            <mxPoint x="570" y="100" as="sourcePoint" />
            <mxPoint x="530" y="100" as="targetPoint" />
          </mxGeometry>
        </mxCell>
        <mxCell id="BxaGuDlrFHRcd8ozgAap-34" value="" style="endArrow=classic;html=1;rounded=0;" edge="1" parent="1">
          <mxGeometry width="50" height="50" relative="1" as="geometry">
            <mxPoint x="570" y="140" as="sourcePoint" />
            <mxPoint x="530" y="140" as="targetPoint" />
          </mxGeometry>
        </mxCell>
        <mxCell id="BxaGuDlrFHRcd8ozgAap-35" value="" style="endArrow=classic;html=1;rounded=0;" edge="1" parent="1">
          <mxGeometry width="50" height="50" relative="1" as="geometry">
            <mxPoint x="570" y="180" as="sourcePoint" />
            <mxPoint x="530" y="180" as="targetPoint" />
          </mxGeometry>
        </mxCell>
        <mxCell id="BxaGuDlrFHRcd8ozgAap-36" value="" style="endArrow=classic;html=1;rounded=0;" edge="1" parent="1">
          <mxGeometry width="50" height="50" relative="1" as="geometry">
            <mxPoint x="570" y="220" as="sourcePoint" />
            <mxPoint x="530" y="220" as="targetPoint" />
          </mxGeometry>
        </mxCell>
        <mxCell id="BxaGuDlrFHRcd8ozgAap-37" value="" style="endArrow=classic;html=1;rounded=0;" edge="1" parent="1">
          <mxGeometry width="50" height="50" relative="1" as="geometry">
            <mxPoint x="570" y="259.76" as="sourcePoint" />
            <mxPoint x="530" y="259.76" as="targetPoint" />
          </mxGeometry>
        </mxCell>
      </root>
    </mxGraphModel>
  </diagram>
</mxfile>
